<svg width="1920" height="800" viewBox="0 0 1920 800" fill="none" xmlns="http://www.w3.org/2000/svg">
  <defs>
    <linearGradient id="heroGradient" x1="0%" y1="0%" x2="100%" y2="100%">
      <stop offset="0%" style="stop-color:#FF0060;stop-opacity:0.9" />
      <stop offset="50%" style="stop-color:#F53D7A;stop-opacity:0.8" />
      <stop offset="100%" style="stop-color:#3C9C8C;stop-opacity:0.7" />
    </linearGradient>
    <linearGradient id="shapeGradient1" x1="0%" y1="0%" x2="100%" y2="100%">
      <stop offset="0%" style="stop-color:#3C9C8C;stop-opacity:0.3" />
      <stop offset="100%" style="stop-color:#FF0060;stop-opacity:0.2" />
    </linearGradient>
    <linearGradient id="shapeGradient2" x1="0%" y1="0%" x2="100%" y2="100%">
      <stop offset="0%" style="stop-color:#F53D7A;stop-opacity:0.4" />
      <stop offset="100%" style="stop-color:#3C9C8C;stop-opacity:0.3" />
    </linearGradient>
  </defs>
  
  <!-- Background -->
  <rect width="1920" height="800" fill="url(#heroGradient)"/>
  
  <!-- Geometric Shapes -->
  <circle cx="1600" cy="150" r="120" fill="url(#shapeGradient1)"/>
  <circle cx="1700" cy="250" r="80" fill="url(#shapeGradient2)"/>
  <circle cx="1500" cy="300" r="60" fill="url(#shapeGradient1)" opacity="0.6"/>
  
  <polygon points="200,600 350,550 300,700" fill="url(#shapeGradient2)"/>
  <polygon points="100,500 200,450 150,600" fill="url(#shapeGradient1)" opacity="0.7"/>
  
  <!-- Book/Education Icons -->
  <g transform="translate(1400, 400)">
    <rect x="0" y="0" width="40" height="50" rx="4" fill="white" opacity="0.2"/>
    <rect x="5" y="8" width="30" height="3" rx="1" fill="white" opacity="0.3"/>
    <rect x="5" y="15" width="25" height="3" rx="1" fill="white" opacity="0.3"/>
    <rect x="5" y="22" width="28" height="3" rx="1" fill="white" opacity="0.3"/>
  </g>
  
  <g transform="translate(1300, 500)">
    <rect x="0" y="0" width="35" height="45" rx="3" fill="white" opacity="0.15"/>
    <rect x="4" y="7" width="27" height="2" rx="1" fill="white" opacity="0.25"/>
    <rect x="4" y="13" width="22" height="2" rx="1" fill="white" opacity="0.25"/>
    <rect x="4" y="19" width="25" height="2" rx="1" fill="white" opacity="0.25"/>
  </g>
  
  <!-- Floating Elements -->
  <circle cx="300" cy="200" r="8" fill="white" opacity="0.3"/>
  <circle cx="450" cy="150" r="6" fill="white" opacity="0.4"/>
  <circle cx="380" cy="100" r="10" fill="white" opacity="0.2"/>
  
  <circle cx="1200" cy="600" r="12" fill="white" opacity="0.25"/>
  <circle cx="1100" cy="650" r="8" fill="white" opacity="0.35"/>
  <circle cx="1300" cy="680" r="6" fill="white" opacity="0.3"/>
  
  <!-- Abstract Lines -->
  <path d="M0,400 Q480,350 960,400 T1920,400" stroke="white" stroke-width="2" fill="none" opacity="0.2"/>
  <path d="M0,450 Q480,400 960,450 T1920,450" stroke="white" stroke-width="1" fill="none" opacity="0.15"/>
</svg>